<?xml version="1.0" encoding="iso-8859-1"?>
<!-- Generator: Adobe Illustrator 19.0.0, SVG Export Plug-In . SVG Version: 6.00 Build 0)  -->
<svg xmlns="http://www.w3.org/2000/svg" xmlns:xlink="http://www.w3.org/1999/xlink" version="1.1" id="Capa_1" x="0px" y="0px" viewBox="0 0 507.9 507.9" style="enable-background:new 0 0 507.9 507.9;" xml:space="preserve" width="512px" height="512px">
<g>
	<g>
		<path d="M106.5,139.55h16.4c0-36.1,29.4-65.5,65.5-65.5v-16.5C143.3,57.55,106.5,94.35,106.5,139.55z" fill="#47F5D2"/>
	</g>
</g>
<g>
	<g>
		<path d="M434.3,131.35h-25c-4.1-41.3-39.1-73.7-81.5-73.7c-14,0-27.5,3.5-39.6,10.2c-23.1-32.2-59.8-51.2-99.7-51.2    c-65.2,0-118.6,51-122.7,115.1c-36.9,4-65.8,35.3-65.8,73.3c0,40.7,33.1,73.7,73.7,73.7h237.6c15.5,20.6,39.6,32.8,65.5,32.8    c26.2,0,50.5-12.4,66-33.4c36.8-4.3,65.1-35.7,65.1-73.2C508,164.35,474.9,131.35,434.3,131.35z M433.8,262.45    c0,0-18,32.7-56.9,32.7c-38.4,0-56.9-32.8-56.9-32.8H73.7c-31.6,0-57.4-25.7-57.4-57.4c0-31.6,25.7-57.4,57.4-57.4h8.2v-8.2    c0-58.6,47.8-106.4,106.6-106.4c65.5,0,94.9,57.6,94.9,57.6s19.3-16.6,44.3-16.6c36.1,0,68.6,29.9,65.5,73.7h41    c31.6,0,57.4,25.7,57.4,57.4C491.6,235.25,467.6,261.95,433.8,262.45z" fill="#47F5D2"/>
	</g>
</g>
<g>
	<g>
		<rect x="245.8" y="188.65" width="16.4" height="16.4" fill="#47F5D2"/>
	</g>
</g>
<g>
	<g>
		<rect x="278.6" y="188.65" width="16.4" height="16.4" fill="#47F5D2"/>
	</g>
</g>
<g>
	<g>
		<rect x="213" y="188.65" width="16.4" height="16.4" fill="#47F5D2"/>
	</g>
</g>
<g>
	<g>
		<polygon points="155.7,319.75 137.5,319.75 147,304.25 133,295.75 122.9,312.25 112.8,295.75 98.8,304.25 108.3,319.75     90.1,319.75 90.1,336.15 108.3,336.15 98.8,351.65 112.8,360.25 122.9,343.65 133,360.25 147,351.65 137.5,336.15 155.7,336.15       " fill="#47F5D2"/>
	</g>
</g>
<g>
	<g>
		<polygon points="327.7,368.95 309.6,368.95 319,353.45 305,344.85 295,361.35 284.9,344.85 270.9,353.45 280.4,368.95     262.2,368.95 262.2,385.35 280.4,385.35 270.9,400.85 284.9,409.35 295,392.85 305,409.35 319,400.85 309.6,385.35 327.7,385.35       " fill="#47F5D2"/>
	</g>
</g>
<g>
	<g>
		<polygon points="221.2,450.85 203,450.85 212.5,435.35 198.5,426.85 188.5,443.35 178.4,426.85 164.4,435.35 173.9,450.85     155.7,450.85 155.7,467.25 173.9,467.25 164.4,482.75 178.4,491.25 188.5,474.75 198.5,491.25 212.5,482.75 203,467.25     221.2,467.25   " fill="#47F5D2"/>
	</g>
</g>
<g>
	<g>
		<polygon points="475.2,442.65 457,442.65 466.5,427.15 452.5,418.65 442.5,435.15 432.4,418.65 418.4,427.15 427.9,442.65     409.7,442.65 409.7,459.05 427.9,459.05 418.4,474.55 432.4,483.15 442.5,466.55 452.5,483.15 466.5,474.55 457,459.05     475.2,459.05   " fill="#47F5D2"/>
	</g>
</g>
<g>
</g>
<g>
</g>
<g>
</g>
<g>
</g>
<g>
</g>
<g>
</g>
<g>
</g>
<g>
</g>
<g>
</g>
<g>
</g>
<g>
</g>
<g>
</g>
<g>
</g>
<g>
</g>
<g>
</g>
</svg>
