<?xml version="1.0" encoding="iso-8859-1"?>
<!-- Generator: Adobe Illustrator 19.1.0, SVG Export Plug-In . SVG Version: 6.00 Build 0)  -->
<svg xmlns="http://www.w3.org/2000/svg" xmlns:xlink="http://www.w3.org/1999/xlink" version="1.1" id="Capa_1" x="0px" y="0px" viewBox="0 0 47.465 47.465" style="enable-background:new 0 0 47.465 47.465;" xml:space="preserve" width="512px" height="512px">
<g>
	<path d="M36.812,9.484c-0.874,0-1.743,0.113-2.594,0.336C32.681,4.067,27.466,0,21.416,0C14.101,0,8.149,5.951,8.149,13.267   c0,0.083,0.001,0.167,0.002,0.251c-4.364,0.255-7.836,3.886-7.836,8.313c0,4.592,3.735,8.327,8.327,8.327h28.169   c5.7,0,10.337-4.637,10.337-10.337S42.512,9.484,36.812,9.484z M36.812,28.158H8.643c-3.489,0-6.327-2.838-6.327-6.327   c0-3.422,2.732-6.211,6.128-6.317c0.031,0.003,0.058,0.018,0.09,0.018c2.223,0,4.031,1.809,4.031,4.031c0,0.552,0.448,1,1,1   s1-0.448,1-1c0-2.757-1.861-5.082-4.391-5.799c-0.007-0.166-0.026-0.33-0.026-0.498C10.149,7.054,15.204,2,21.416,2   c5.189,0,9.647,3.525,10.903,8.489c-4.041,1.673-6.918,5.309-7.597,9.685c-0.084,0.546,0.289,1.057,0.835,1.142   c0.052,0.008,0.104,0.012,0.154,0.012c0.484,0,0.91-0.353,0.987-0.847c0.61-3.934,3.332-7.157,7.103-8.413   c0.023-0.008,0.039-0.026,0.061-0.035c0.958-0.364,1.951-0.549,2.951-0.549c4.597,0,8.337,3.74,8.337,8.337   S41.409,28.158,36.812,28.158z" fill="#47F5D2"/>
	<path d="M12.068,33c-1.964,0-3.562,1.598-3.562,3.562s1.598,3.562,3.562,3.562s3.562-1.598,3.562-3.562S14.033,33,12.068,33z    M12.068,38.125c-0.861,0-1.562-0.701-1.562-1.562S11.207,35,12.068,35s1.562,0.701,1.562,1.562S12.93,38.125,12.068,38.125z" fill="#47F5D2"/>
	<path d="M23.732,40.321c-1.969,0-3.571,1.603-3.571,3.572c0,1.969,1.602,3.571,3.571,3.571s3.572-1.603,3.572-3.571   C27.304,41.924,25.702,40.321,23.732,40.321z M23.732,45.465c-0.866,0-1.571-0.705-1.571-1.571c0-0.867,0.705-1.572,1.571-1.572   c0.867,0,1.572,0.705,1.572,1.572C25.304,44.76,24.599,45.465,23.732,45.465z" fill="#47F5D2"/>
	<path d="M33.485,31.938c-1.688,0-3.062,1.374-3.062,3.062s1.374,3.062,3.062,3.062s3.062-1.374,3.062-3.062   S35.173,31.938,33.485,31.938z M33.485,36.062c-0.586,0-1.062-0.477-1.062-1.062s0.477-1.062,1.062-1.062s1.062,0.477,1.062,1.062   S34.071,36.062,33.485,36.062z" fill="#47F5D2"/>
</g>
<g>
</g>
<g>
</g>
<g>
</g>
<g>
</g>
<g>
</g>
<g>
</g>
<g>
</g>
<g>
</g>
<g>
</g>
<g>
</g>
<g>
</g>
<g>
</g>
<g>
</g>
<g>
</g>
<g>
</g>
</svg>
